<?xml version="1.0" standalone="no"?>
<!DOCTYPE svg PUBLIC "-//W3C//DTD SVG 20010904//EN"
 "http://www.w3.org/TR/2001/REC-SVG-20010904/DTD/svg10.dtd">
<svg version="1.0" xmlns="http://www.w3.org/2000/svg"
 width="512.000000pt" height="512.000000pt" viewBox="0 0 512.000000 512.000000"
 preserveAspectRatio="xMidYMid meet">
<metadata>
Created by potrace 1.14, written by Peter Selinger 2001-2017
</metadata>
<g transform="translate(0.000000,512.000000) scale(0.100000,-0.100000)"
fill="#000000" stroke="none">
<path d="M2379 5116 c-2 -2 -34 -6 -70 -10 -219 -20 -485 -99 -694 -206 -169
-87 -184 -96 -307 -188 -354 -265 -597 -603 -742 -1033 -76 -227 -108 -416
-110 -644 -1 -184 8 -273 40 -435 83 -410 287 -781 595 -1080 93 -91 540 -523
619 -600 31 -30 166 -161 300 -290 133 -129 270 -261 304 -293 33 -32 103 -99
154 -149 l92 -91 82 79 c121 118 185 179 413 399 114 110 251 243 305 295 53
52 193 187 310 300 369 355 484 472 558 568 295 384 443 827 436 1305 -3 194
-18 307 -69 502 -30 116 -30 115 -104 300 -24 61 -118 244 -154 301 -272 429
-668 733 -1152 884 -38 12 -77 23 -85 25 -8 2 -37 9 -65 15 -126 30 -245 42
-441 46 -116 2 -213 2 -215 0z"/>
</g>
</svg>
